<mxfile host="app.diagrams.net" modified="2023-06-21T12:10:17.065Z" agent="Mozilla/5.0 (Windows NT 10.0; Win64; x64; rv:109.0) Gecko/20100101 Firefox/114.0" version="21.1.2" etag="pW6qQEl32htd_cK1wZ4D" type="github">
  <diagram name="Page-1" id="Dq0L96MFqgwGJVTyM9h0">
    <mxGraphModel>
      <root>
        <mxCell id="0" />
        <mxCell id="1" parent="0" />
      </root>
    </mxGraphModel>
  </diagram>
</mxfile>
